<svg width="326" height="326" viewBox="0 0 326 326" fill="none" xmlns="http://www.w3.org/2000/svg">
<path d="M62 221.36C62.0366 220.259 62.1107 219.15 62.1107 218.049C62.1179 165.291 62.1473 112.532 62.0661 59.7744C62.0589 54.401 63.1607 49.5671 66.375 45.2507C70.9804 40.1287 76.7598 37.9039 83.5964 38.1256C86.258 38.2144 88.9259 38.0517 91.5866 38C92.6884 38.0517 93.7893 38.1552 94.8902 38.1552C124.625 38.1626 154.367 38.1848 184.102 38.1256C191.862 38.1109 198.168 40.7496 202.403 47.4754C204.206 50.3359 205.204 53.4771 205.226 56.8919C205.233 58.1853 205.255 59.4787 205.255 60.7722C205.255 128.934 205.226 197.087 205.314 265.249C205.322 270.563 204.597 275.515 201.737 280.046C196.763 286.04 190.37 288.051 182.646 287.999C149.881 287.778 117.116 287.77 84.3509 287.977C76.3464 288.028 69.9384 285.634 65.1045 279.226C62.6795 275.02 62.0295 270.482 62.0589 265.662C62.1625 250.903 62.0366 236.128 62 221.36ZM199.631 261.272C199.661 260.629 199.704 259.987 199.704 259.336C199.704 195.27 199.712 131.196 199.704 67.1286C199.704 66.3008 199.609 65.473 199.557 64.6452C199.587 62.0656 199.697 59.4787 199.638 56.8992C199.476 50.0033 193.571 44.1199 186.689 43.9573C184.198 43.8981 181.707 43.9351 179.216 43.9351C146.651 43.9351 114.093 43.9204 81.5277 43.9499C73.5152 43.9573 67.7875 49.7446 67.7357 57.727C67.7205 60.0331 67.7946 62.3391 67.8312 64.6378C67.7795 65.7391 67.6839 66.8478 67.6839 67.949C67.6759 131.372 67.6759 194.796 67.6839 258.22C67.6839 259.232 67.7357 260.245 67.7571 261.265C67.75 263.482 67.7205 265.7 67.7277 267.91C67.7571 276.536 73.5223 282.293 82.1634 282.308C95.4598 282.322 108.763 282.315 122.061 282.315C143.303 282.315 164.545 282.33 185.787 282.3C192.89 282.293 198.737 277.319 199.542 270.393C199.889 267.4 199.616 264.318 199.631 261.272Z" fill=" #005760"/>
<path d="M199.553 64.646C199.605 65.4738 199.701 66.3015 199.701 67.1294C199.708 131.196 199.708 195.27 199.701 259.337C199.701 259.98 199.649 260.623 199.627 261.273C195.258 261.266 190.883 261.266 186.514 261.259C186.507 258.501 186.5 255.737 186.485 252.98C187.091 248.317 186.87 243.638 186.633 238.982C186.478 235.995 184.46 233.97 181.452 233.808C176.796 233.549 172.109 233.32 167.453 233.963C152.116 233.934 136.772 233.896 121.436 233.867C120.689 233.342 119.831 233.564 119.019 233.564C108.612 233.549 98.2054 233.542 87.7983 233.556C82.9055 233.564 80.5028 235.951 80.4956 240.815C80.4813 247.629 80.4885 254.443 80.4885 261.259C76.2456 261.266 71.9956 261.273 67.7537 261.281C67.7242 260.268 67.6796 259.255 67.6796 258.235C67.6796 194.812 67.6724 131.388 67.6796 67.9646C67.6796 66.8633 67.776 65.7547 67.8278 64.6533C111.731 64.646 155.642 64.646 199.553 64.646ZM113.209 135.949C114.126 135.985 115.049 136.067 115.966 136.067C137.068 136.074 158.163 136.074 179.264 136.067C184.874 136.067 186.788 134.123 186.796 128.373C186.811 117.774 186.803 107.182 186.796 96.5828C186.796 95.4819 186.929 94.3587 186.33 93.3462C186.36 90.7667 186.404 88.1792 186.412 85.5997C186.419 79.5022 184.807 77.8762 178.769 77.8762C148.68 77.8762 118.582 77.8762 88.4929 77.8762C87.3921 77.8762 86.3055 77.8614 85.2037 78.1644C82.4394 78.9183 80.9688 80.5665 80.976 83.5158C80.9912 99.2069 80.9617 114.899 81.0054 130.59C81.0135 133.909 83.0751 135.993 86.3644 136.001C95.3001 136.044 104.251 135.978 113.209 135.949ZM162.043 149.252C155.117 149.252 148.199 149.238 141.273 149.26C138.147 149.268 137.481 149.903 137.467 152.963C137.438 159.608 137.438 166.252 137.467 172.904C137.481 175.986 138.28 176.8 141.458 176.807C155.213 176.836 168.968 176.836 182.716 176.807C185.695 176.8 186.559 175.964 186.581 173.015C186.64 166.37 186.633 159.726 186.588 153.081C186.566 149.969 185.783 149.275 182.531 149.268C175.702 149.245 168.872 149.252 162.043 149.252ZM105.345 176.918C112.086 176.918 118.826 176.94 125.56 176.91C128.93 176.895 129.854 175.957 129.862 172.668C129.876 166.208 129.876 159.741 129.862 153.281C129.854 149.807 129.322 149.282 125.826 149.282C112.167 149.275 98.501 149.275 84.8421 149.282C81.5679 149.282 80.651 150.213 80.6287 153.613C80.5992 159.8 80.5921 165.986 80.6287 172.165C80.651 175.986 81.568 176.888 85.4037 176.91C92.0555 176.94 98.7001 176.918 105.345 176.918ZM161.71 210.828C168.724 210.828 175.738 210.821 182.753 210.836C185.206 210.843 186.448 209.904 186.396 207.2C186.271 200.466 186.367 193.726 186.352 186.992C186.345 183.888 185.716 183.163 182.686 183.163C168.842 183.134 154.999 183.156 141.155 183.149C138.701 183.149 137.46 184.08 137.512 186.785C137.637 193.43 137.548 200.075 137.555 206.719C137.563 210.267 138.125 210.828 141.776 210.836C148.421 210.836 155.065 210.828 161.71 210.828ZM105.707 183.171C98.7894 183.171 91.8706 183.156 84.9599 183.178C81.5974 183.185 80.9394 183.866 80.9322 187.258C80.9171 193.807 80.9099 200.355 80.9322 206.904C80.9394 210.075 81.6563 210.806 84.8492 210.814C98.5894 210.836 112.33 210.836 126.07 210.814C129.019 210.806 129.847 209.964 129.862 207.015C129.891 200.377 129.891 193.733 129.862 187.095C129.847 184.013 129.019 183.193 125.9 183.185C119.174 183.149 112.44 183.171 105.707 183.171ZM94.9528 228.035C98.634 228.035 102.314 228.02 105.996 228.043C107.902 228.058 109.329 227.459 109.299 225.293C109.27 223.364 108.013 222.521 106.21 222.514C98.8483 222.492 91.4867 222.485 84.1251 222.514C82.2403 222.521 80.8653 223.297 80.976 225.463C81.0796 227.466 82.3876 228.05 84.184 228.035C87.776 228.013 91.3608 228.027 94.9528 228.035Z" fill="#FDFDFE"/>
<path d="M67.7553 261.307C71.9981 261.299 76.2481 261.291 80.4901 261.284C81.3258 261.772 82.2419 261.75 83.166 261.75C95.0213 261.742 106.877 261.742 118.725 261.75C119.649 261.75 120.565 261.787 121.415 261.343C143.116 261.329 164.809 261.307 186.509 261.291C190.878 261.299 195.253 261.299 199.621 261.307C199.606 264.352 199.88 267.434 199.525 270.442C198.712 277.367 192.873 282.334 185.77 282.349C164.528 282.379 143.286 282.364 122.044 282.364C108.746 282.364 95.4428 282.379 82.1454 282.357C73.5053 282.341 67.7481 276.584 67.7106 267.958C67.7187 265.741 67.7481 263.523 67.7553 261.307Z" fill=" #005760"/>
<path d="M199.559 64.6401C155.648 64.6401 111.738 64.6401 67.8271 64.6401C67.7896 62.3342 67.7155 60.0281 67.7307 57.7294C67.7824 49.7543 73.5182 43.9597 81.5226 43.9523C114.088 43.9153 146.646 43.9375 179.212 43.9375C181.703 43.9375 184.193 43.9079 186.684 43.9597C193.565 44.1149 199.478 50.0057 199.633 56.9017C199.7 59.4811 199.59 62.0607 199.559 64.6401ZM133.823 50.6413C130.696 50.6413 127.562 50.656 124.436 50.6339C122.721 50.6265 121.605 51.2695 121.442 53.1174C121.257 55.1351 122.425 56.1403 124.177 56.1699C130.526 56.2734 136.875 56.266 143.224 56.1699C144.813 56.1477 146.018 55.2977 145.951 53.3835C145.885 51.3952 144.799 50.6265 142.929 50.6413C139.899 50.656 136.86 50.6413 133.823 50.6413ZM155.922 50.6192C154.532 50.8335 153.594 51.6687 153.594 53.4647C153.594 55.3643 154.798 56.1551 156.373 56.1329C158.007 56.1108 159.123 54.9799 159.1 53.3095C159.085 51.6095 157.918 50.7595 155.922 50.6192Z" fill=" #005760"/>
<path d="M186.332 93.3203C186.938 94.3337 186.798 95.4569 186.798 96.5578C186.798 107.157 186.805 117.749 186.798 128.347C186.79 134.098 184.883 136.042 179.266 136.042C158.165 136.049 137.07 136.042 115.968 136.042C115.051 136.042 114.128 135.968 113.211 135.924C112.841 129.197 113.499 122.59 115.428 116.122C120.395 116.093 125.355 116.027 130.322 116.063C132.362 116.078 133.973 115.391 133.973 113.269C133.981 111.148 132.376 110.453 130.329 110.476C126.286 110.527 122.236 110.446 118.193 110.417C118.348 108.517 120.04 107.305 120.381 105.494C121.016 105.457 121.659 105.398 122.295 105.391C125.222 105.369 128.156 105.45 131.075 105.331C132.842 105.258 134.099 104.194 134.04 102.375C133.981 100.69 132.834 99.8542 131.075 99.8319C129.346 99.8105 127.609 99.6257 125.88 99.515C129.435 94.8578 134.202 91.7542 139.42 89.381C154.587 82.5075 169.355 83.4685 183.612 92.0498C184.491 92.5739 185.267 93.2319 186.332 93.3203Z" fill="#EEECEC"/>
<path d="M186.327 93.3679C185.263 93.2786 184.487 92.6205 183.622 92.0964C169.364 83.508 154.597 82.5468 139.43 89.4277C134.205 91.7929 129.445 94.8973 125.889 99.5616C116.318 99.5616 106.747 99.5536 97.1742 99.5616C96.1698 99.5616 95.1573 99.458 94.1814 99.8714C92.9912 100.381 92.1483 101.136 92.1564 102.532C92.1635 103.929 93.0135 104.676 94.2037 105.179C95.1787 105.593 96.1992 105.467 97.2046 105.467C104.935 105.496 112.666 105.519 120.397 105.541C120.058 107.352 118.365 108.563 118.21 110.463C110.73 110.493 103.25 110.529 95.7706 110.537C93.7528 110.537 92.1189 111.18 92.2296 113.42C92.3331 115.386 93.8483 116.103 95.7706 116.096C102.326 116.087 108.882 116.139 115.438 116.162C113.509 122.629 112.851 129.237 113.221 135.962C104.27 135.992 95.3198 136.059 86.3617 136.029C83.0724 136.014 81.0099 133.937 81.0028 130.619C80.9582 114.928 80.9956 99.2357 80.9733 83.5446C80.9733 80.6029 82.4367 78.9547 85.201 78.1934C86.3019 77.8904 87.3885 77.9051 88.4903 77.9051C118.58 77.8977 148.676 77.8977 178.766 77.9051C184.805 77.9051 186.415 79.5312 186.408 85.6286C186.401 88.2009 186.356 90.7875 186.327 93.3679ZM98.0546 92.2732C99.0671 92.2732 100.08 92.2812 101.092 92.2732C102.814 92.2589 104.026 91.342 104.145 89.7161C104.255 88.2009 103.139 87.0188 101.631 86.8929C99.259 86.6929 96.8349 86.6116 94.4769 86.8857C93.0876 87.0482 91.9715 88.208 92.2153 89.8643C92.4367 91.3795 93.2939 92.3696 95.0242 92.2813C96.0287 92.2366 97.0412 92.2732 98.0546 92.2732Z" fill="#EDF0EF"/>
<path d="M186.516 261.27C164.816 261.285 143.123 261.306 121.423 261.321C122.664 257.042 124.208 252.866 124.327 248.291C124.46 243.213 122.812 238.594 121.437 233.87C136.774 233.9 152.118 233.937 167.455 233.974C167.824 244.772 175.799 252.74 186.487 252.999C186.501 255.748 186.509 258.512 186.516 261.27Z" fill="#EDF0EF"/>
<path d="M162.043 149.23C168.873 149.23 175.702 149.215 182.532 149.237C185.776 149.244 186.567 149.939 186.59 153.051C186.642 159.695 186.642 166.341 186.583 172.985C186.56 175.934 185.695 176.769 182.717 176.777C168.962 176.806 155.207 176.806 141.459 176.777C138.281 176.769 137.483 175.956 137.468 172.874C137.446 166.229 137.439 159.585 137.468 152.933C137.483 149.873 138.141 149.237 141.275 149.23C148.2 149.215 155.118 149.23 162.043 149.23Z" fill="#EDF0EF"/>
<path d="M105.348 176.899C98.7037 176.899 92.0511 176.921 85.4064 176.892C81.5707 176.878 80.6546 175.968 80.6323 172.147C80.5948 165.961 80.6029 159.774 80.6323 153.596C80.6466 150.196 81.5707 149.271 84.8448 149.264C98.5037 149.256 112.17 149.256 125.829 149.264C129.325 149.264 129.857 149.796 129.864 153.263C129.88 159.722 129.88 166.189 129.864 172.65C129.857 175.938 128.933 176.87 125.563 176.892C118.83 176.921 112.089 176.899 105.348 176.899Z" fill="#EDF0EF"/>
<path d="M161.718 210.819C155.074 210.819 148.429 210.835 141.784 210.812C138.125 210.805 137.564 210.244 137.564 206.695C137.557 200.051 137.645 193.406 137.52 186.761C137.468 184.056 138.709 183.118 141.164 183.125C155.008 183.133 168.851 183.11 182.694 183.14C185.725 183.147 186.353 183.864 186.36 186.969C186.375 193.71 186.279 200.443 186.405 207.176C186.457 209.881 185.215 210.819 182.761 210.812C175.747 210.812 168.733 210.819 161.718 210.819Z" fill="#EDF0EF"/>
<path d="M105.713 183.169C112.446 183.169 119.18 183.155 125.905 183.176C129.024 183.184 129.852 184.012 129.867 187.087C129.889 193.724 129.897 200.368 129.867 207.006C129.852 209.955 129.024 210.798 126.075 210.805C112.335 210.827 98.5948 210.827 84.8546 210.805C81.6689 210.798 80.9519 210.066 80.9376 206.895C80.9153 200.346 80.9153 193.798 80.9376 187.249C80.9448 183.857 81.6028 183.184 84.9653 183.169C91.8841 183.147 98.8019 183.169 105.713 183.169Z" fill="#EDF0EF"/>
<path d="M121.444 233.869C122.819 238.591 124.467 243.218 124.334 248.288C124.208 252.863 122.671 257.039 121.429 261.319C120.579 261.763 119.655 261.726 118.738 261.726C106.883 261.726 95.0278 261.718 83.1796 261.726C82.2555 261.726 81.3394 261.748 80.5046 261.26C80.5046 254.446 80.4965 247.63 80.5117 240.816C80.526 235.953 82.9215 233.565 87.8144 233.558C98.2206 233.543 108.628 233.551 119.034 233.565C119.832 233.572 120.69 233.344 121.444 233.869Z" fill="#EDF0EF"/>
<path d="M186.483 252.998C175.796 252.739 167.828 244.771 167.451 233.973C172.108 233.33 176.794 233.559 181.45 233.818C184.458 233.987 186.476 236.005 186.632 238.992C186.868 243.655 187.09 248.334 186.483 252.998Z" fill="#EDF0EF"/>
<path d="M94.9564 228.004C91.3644 228.004 87.7796 227.982 84.1876 228.012C82.384 228.027 81.0751 227.443 80.9796 225.44C80.8689 223.274 82.243 222.498 84.1278 222.491C91.4894 222.454 98.851 222.461 106.213 222.491C108.016 222.498 109.272 223.341 109.303 225.27C109.332 227.436 107.905 228.034 105.998 228.02C102.318 227.982 98.6367 228.004 94.9564 228.004Z" fill="#EDF0EF"/>
<path d="M133.822 50.6405C136.861 50.6405 139.898 50.6553 142.936 50.6332C144.806 50.6184 145.893 51.3945 145.959 53.3753C146.026 55.2896 144.813 56.1396 143.231 56.1618C136.883 56.2578 130.534 56.2653 124.185 56.1618C122.433 56.1322 121.265 55.127 121.45 53.1092C121.62 51.2614 122.736 50.6184 124.443 50.6258C127.563 50.6553 130.697 50.6405 133.822 50.6405Z" fill="white"/>
<path d="M155.917 50.6257C157.905 50.7662 159.073 51.6162 159.103 53.3235C159.125 54.9865 158.009 56.1247 156.375 56.147C154.801 56.1691 153.596 55.3709 153.596 53.4788C153.596 51.6753 154.528 50.8401 155.917 50.6257Z" fill="white"/>
<path d="M120.376 105.514C112.645 105.492 104.914 105.47 97.1823 105.44C96.1769 105.433 95.1644 105.559 94.1814 105.152C92.9912 104.65 92.1412 103.911 92.1341 102.506C92.1269 101.109 92.9689 100.355 94.1591 99.8457C95.135 99.4314 96.1475 99.5349 97.1528 99.5349C106.724 99.5278 116.296 99.5349 125.867 99.5349C127.597 99.6457 129.326 99.8305 131.064 99.8528C132.83 99.8751 133.975 100.718 134.027 102.396C134.086 104.214 132.83 105.278 131.064 105.352C128.144 105.47 125.209 105.397 122.282 105.411C121.655 105.419 121.019 105.485 120.376 105.514Z" fill="#FDFDFE"/>
<path d="M115.436 116.138C108.88 116.109 102.324 116.064 95.7673 116.072C93.8459 116.072 92.3307 115.355 92.2272 113.396C92.1093 111.157 93.7504 110.514 95.7673 110.514C103.248 110.514 110.727 110.47 118.208 110.44C122.25 110.47 126.3 110.551 130.343 110.492C132.391 110.463 133.988 111.157 133.988 113.286C133.98 115.407 132.369 116.095 130.336 116.079C125.362 116.043 120.395 116.116 115.436 116.138Z" fill="#FEFEFE"/>
<path d="M98.0576 92.2518C97.0451 92.2518 96.0326 92.2152 95.0201 92.2599C93.2978 92.3411 92.4335 91.3501 92.2112 89.8429C91.9675 88.1867 93.0835 87.0268 94.4728 86.8643C96.8308 86.5902 99.255 86.6715 101.628 86.8715C103.143 86.9974 104.251 88.1795 104.141 89.6947C104.023 91.3206 102.81 92.2375 101.088 92.2518C100.084 92.2599 99.0701 92.2518 98.0576 92.2518Z" fill="#EDF0EF"/>
<path d="M163.044 191.168C160.331 195.536 159.898 200.988 161.88 205.626C163.134 208.562 165.824 211.677 167.031 211.601C167.76 211.555 168.525 210.719 168.481 210.017C168.457 209.624 168.146 209.164 167.376 208.353C164.237 205.028 163.059 200.62 164.171 196.324C164.753 194.161 165.579 192.713 167.31 190.9C169.097 189.055 170.781 188.048 173.11 187.451C176.856 186.511 180.579 187.251 183.741 189.588C185.203 190.666 185.929 190.776 186.626 189.985C187.35 189.165 187.183 188.541 185.901 187.41C182.963 184.819 178.046 183.478 173.874 184.12C169.505 184.775 165.322 187.503 163.044 191.168Z" fill=" #005760"/>
<mask id="mask0_58_47" style="mask-type:luminance" maskUnits="userSpaceOnUse" x="160" y="183" width="28" height="29">
<path d="M163.044 191.168C160.331 195.536 159.898 200.988 161.88 205.626C163.134 208.562 165.824 211.677 167.031 211.601C167.76 211.555 168.525 210.719 168.481 210.017C168.457 209.624 168.146 209.164 167.376 208.353C164.237 205.028 163.059 200.62 164.171 196.324C164.753 194.161 165.579 192.713 167.31 190.9C169.097 189.055 170.781 188.048 173.11 187.451C176.856 186.511 180.579 187.251 183.741 189.588C185.203 190.666 185.929 190.776 186.626 189.985C187.35 189.165 187.183 188.541 185.901 187.41C182.963 184.819 178.046 183.478 173.874 184.12C169.505 184.775 165.322 187.503 163.044 191.168Z" fill="white"/>
</mask>
<g mask="url(#mask0_58_47)">
<path d="M167.376 208.352L160.884 214.481L160.899 214.497L167.376 208.352ZM164.171 196.323L155.549 194.002L155.526 194.088L164.171 196.323ZM167.31 190.899L160.896 184.689L160.854 184.733L167.31 190.899ZM173.11 187.45L170.939 178.79L170.894 178.801L173.11 187.45ZM183.742 189.588L178.433 196.767L178.444 196.775L183.742 189.588ZM173.874 184.12L175.196 192.95L175.232 192.945L173.874 184.12ZM155.461 186.454C151.241 193.248 150.522 201.767 153.669 209.133L170.091 202.117C169.275 200.207 169.423 197.82 170.629 195.878L155.461 186.454ZM153.669 209.133C154.697 211.538 156.201 213.823 157.712 215.574C158.467 216.448 159.434 217.438 160.576 218.285C161.149 218.709 161.948 219.234 162.94 219.668C163.865 220.072 165.512 220.642 167.59 220.512L166.472 202.689C168.247 202.578 169.547 203.067 170.088 203.304C170.698 203.57 171.079 203.842 171.209 203.939C171.469 204.131 171.46 204.172 171.234 203.911C170.784 203.389 170.318 202.648 170.091 202.117L153.669 209.133ZM167.59 220.512C170.953 220.3 173.337 218.498 174.634 217.081C175.897 215.7 177.618 213.045 177.393 209.457L159.57 210.575C159.389 207.689 160.75 205.803 161.459 205.028C162.201 204.215 163.838 202.855 166.472 202.689L167.59 220.512ZM177.393 209.457C177.243 207.067 176.258 205.319 175.637 204.389C175.026 203.472 174.332 202.711 173.855 202.208L160.899 214.497C161.191 214.805 161.035 214.679 160.779 214.293C160.512 213.894 159.695 212.572 159.57 210.575L177.393 209.457ZM173.869 202.223C172.754 201.041 172.502 199.767 172.815 198.56L155.526 194.088C153.616 201.473 155.721 209.012 160.884 214.481L173.869 202.223ZM172.792 198.646C172.929 198.136 173.018 197.988 173.043 197.943C173.083 197.873 173.234 197.626 173.768 197.066L160.854 184.733C158.183 187.53 156.553 190.272 155.549 194.002L172.792 198.646ZM173.726 197.11C174.2 196.62 174.46 196.447 174.576 196.379C174.675 196.32 174.864 196.218 175.326 196.099L170.894 178.801C166.839 179.84 163.734 181.758 160.896 184.689L173.726 197.11ZM175.283 196.111C176.409 195.828 177.393 195.998 178.433 196.767L189.05 182.408C183.765 178.501 177.302 177.194 170.939 178.79L175.283 196.111ZM178.444 196.775C179.236 197.358 181.363 198.926 184.231 199.329C185.975 199.573 187.879 199.382 189.717 198.564C191.433 197.801 192.601 196.708 193.322 195.89L179.93 184.079C180.302 183.656 181.118 182.846 182.457 182.25C183.917 181.6 185.418 181.464 186.71 181.645C187.851 181.805 188.613 182.18 188.863 182.311C189.131 182.452 189.214 182.53 189.038 182.4L178.444 196.775ZM193.322 195.89C194.632 194.406 196.889 190.985 195.618 186.418C194.733 183.242 192.458 181.287 191.807 180.713L179.995 194.106C180.125 194.22 179.956 194.089 179.69 193.757C179.436 193.44 178.795 192.575 178.415 191.209C177.98 189.648 178.039 187.987 178.559 186.48C179.012 185.168 179.684 184.358 179.93 184.079L193.322 195.89ZM191.807 180.713C186.706 176.214 179.063 174.288 172.516 175.295L175.232 192.945C177.03 192.668 179.22 193.422 179.995 194.106L191.807 180.713ZM172.551 175.289C165.651 176.323 159.152 180.515 155.461 186.454L170.629 195.878C171.494 194.486 173.359 193.225 175.196 192.95L172.551 175.289Z" fill="#5A5A5A"/>
</g>
<path d="M171.809 198.556C171.515 199.703 171.665 200.975 172.26 202.375C172.527 203.034 174.08 204.43 190.131 218.64C199.784 227.207 207.813 234.369 207.952 234.571C208.293 235.057 208.023 236.145 207.47 236.532C207.186 236.733 205.456 236.77 202.249 236.647C197.012 236.483 196.015 236.531 194.503 237.133C191.383 238.386 189.408 241.496 189.439 245.129L189.47 246.297L209.421 251.245C220.412 253.966 230.125 256.302 231.048 256.427C235.399 257.055 240.07 255.819 243.51 253.152C245.364 251.711 260.54 234.444 261.646 232.528C263.221 229.781 263.906 226.991 263.804 223.799C263.677 220.425 262.773 217.481 260.904 214.4L259.959 212.825L230.877 187.174L229.835 186.971C226.327 186.29 223.406 188.699 223.525 192.171C223.583 194 223.898 194.515 226.608 197.065L229.063 199.362L229.052 200.095C229.038 200.984 228.633 201.503 227.838 201.623C227.239 201.731 227.209 201.704 223.31 198.399C219.71 195.355 219.31 195.057 218.406 194.789C215.433 193.891 212.469 195.598 211.973 198.476C211.763 199.616 212.141 201.381 212.781 202.37C213.028 202.72 214.827 204.439 216.87 206.242C220.36 209.32 220.556 209.519 220.665 210.146C220.836 211.065 220.047 211.96 219.113 211.906C218.462 211.862 218.27 211.72 213.856 207.826C208.725 203.301 208.373 203.069 206.412 203.037C203.563 202.99 201.294 205.232 201.287 208.036C201.281 210.418 201.203 210.295 207.283 215.818L212.647 220.68L212.615 221.288C212.592 221.614 212.477 222.015 212.345 222.165C211.99 222.568 211.165 222.901 210.764 222.785C210.577 222.727 203.34 216.502 194.694 208.957L178.969 195.22L178.082 195.021C176.939 194.754 175.284 194.887 174.368 195.325C173.234 195.889 172.163 197.224 171.809 198.556Z" fill="#5A5A5A"/>
</svg>
