<?xml version="1.0" encoding="UTF-8"?>
<svg width="27px" height="31px" viewBox="0 0 27 31" version="1.1" xmlns="http://www.w3.org/2000/svg" xmlns:xlink="http://www.w3.org/1999/xlink">
    <!-- Generator: Sketch 62 (91390) - https://sketch.com -->
    <title>cancel-2</title>
    <desc>Created with Sketch.</desc>
    <g id="Page-1" stroke="none" stroke-width="1" fill="none" fill-rule="evenodd">
        <g id="cancel-2" fill="#FF2600" fill-rule="nonzero">
            <path d="M25.7185789,13.6903194 C25.2206989,13.6903194 24.8170789,14.0939394 24.8170789,14.5918193 L24.8170789,17.7325192 C24.8170789,18.7794592 23.9653789,19.6311591 22.918439,19.6311591 L8.8879196,19.6311591 C7.84097965,19.6311591 6.98927969,18.7794592 6.98927969,17.7325192 L6.98927969,3.91217983 C6.98927969,2.90927987 6.35915972,1.99685991 5.42135976,1.64177993 L1.24091994,0.0586199974 C0.775319965,-0.117659995 0.254879989,0.116819995 0.0785999965,0.582359974 C-0.0977399956,1.04801995 0.136799994,1.56833993 0.602339973,1.74467992 L4.78277979,3.32777985 C5.02415978,3.41915985 5.18627977,3.65399984 5.18627977,3.91211983 L5.18627977,22.951799 C5.18627977,24.8699989 6.7164597,26.4364188 8.62013961,26.4970788 C8.45639962,26.8680588 8.36483963,27.2776788 8.36483963,27.7084788 C8.36483963,29.3690387 9.71579957,30.7199986 11.3763595,30.7199986 C13.0369194,30.7199986 14.3878794,29.3690387 14.3878794,27.7084788 C14.3878794,27.2787588 14.2967994,26.8701588 14.1338994,26.4999677 L19.5146991,26.4999677 C19.3518591,26.8701588 19.2607191,27.2787588 19.2607191,27.7084788 C19.2607191,29.3690387 20.6116791,30.7199986 22.272239,30.7199986 C23.9327989,30.7199986 25.2836989,29.3690387 25.2836989,27.7084788 C25.2836989,26.0479188 23.9327389,24.6969589 22.272239,24.6969589 C22.260839,24.6969589 22.249619,24.6976789 22.238219,24.6977989 C22.232519,24.6976789 22.226939,24.6969589 22.221179,24.6969589 L8.73449961,24.6969589 C7.77221965,24.6969589 6.98921969,23.9140789 6.98921969,22.951679 L6.98921969,20.9084391 C7.54475966,21.2417991 8.19419963,21.433979 8.8878596,21.433979 L22.918439,21.433979 C24.9595189,21.433979 26.6200788,19.7734191 26.6200788,17.7323392 L26.6200788,14.5916393 C26.6200788,14.0939394 26.2164588,13.6903194 25.7185789,13.6903194 Z M22.272299,26.4999588 C22.938659,26.4999588 23.480759,27.0421788 23.480759,27.7084788 C23.480759,28.3748387 22.938599,28.9169987 22.272299,28.9169987 C21.605999,28.9169987 21.0637791,28.3748387 21.0637791,27.7084788 C21.0637791,27.0421188 21.605879,26.4999588 22.272299,26.4999588 Z M11.3764195,26.4999588 C12.0427795,26.5000188 12.5849394,27.0421788 12.5849394,27.7084788 C12.5849394,28.3748387 12.0427795,28.9169987 11.3764195,28.9169987 C10.7100595,28.9169987 10.1678995,28.3748387 10.1678995,27.7084788 C10.1678995,27.0421188 10.7100595,26.4999588 11.3764195,26.4999588 Z" id="Shape"></path>
            <path d="M17.3226592,9.72899957 L20.0566791,6.99497969 C20.4087591,6.6428997 20.4087591,6.07217973 20.0566791,5.72009974 C19.7046591,5.36801976 19.1338791,5.36801976 18.7817992,5.72009974 L16.0477793,8.45411962 L13.3137594,5.72009974 C12.9617394,5.36801976 12.3909594,5.36801976 12.0388795,5.72009974 C11.6867995,6.07217973 11.6867995,6.6428997 12.0388795,6.99497969 L14.7728993,9.72899957 L12.0388795,12.4630194 C11.6869195,12.8150994 11.6869195,13.3858194 12.0389995,13.7378994 C12.2150395,13.9139394 12.4457394,14.0019594 12.6764394,14.0019594 C12.9070794,14.0019594 13.1378994,13.9139994 13.3138194,13.7378994 L16.0478393,11.0038795 L18.7818592,13.7378994 C18.9578992,13.9139394 19.1885991,14.0019594 19.4192991,14.0019594 C19.6499391,14.0019594 19.8807591,13.9139994 20.0566791,13.7378994 C20.4087591,13.3858194 20.4087591,12.8150994 20.0566791,12.4630194 L17.3226592,9.72899957 Z" id="Path"></path>
        </g>
    </g>
</svg>