<svg width="646" height="663" viewBox="0 0 646 663" fill="none" xmlns="http://www.w3.org/2000/svg">
<rect width="646" height="663" rx="47" fill="#005760"/>
<g clip-path="url(#clip0_306_3660)">
<g opacity="0.6">
<path d="M179.751 398.627L170.406 400.32L168.569 390.185L157.453 392.189L159.291 402.336L149.936 404.029L152.029 415.534L161.374 413.841L163.211 423.976L174.327 421.96L172.489 411.825L181.833 410.132L179.751 398.627Z" stroke="#92E3A9" stroke-width="1.11375" stroke-linecap="round" stroke-linejoin="round"/>
<path d="M273.151 243.369L264.197 240.206L267.627 230.494L256.969 226.729L253.538 236.441L244.584 233.278L240.686 244.305L249.651 247.468L246.221 257.18L256.868 260.944L260.299 251.232L269.253 254.395L273.151 243.369Z" stroke="#92E3A9" stroke-width="1.11375" stroke-linecap="round" stroke-linejoin="round"/>
<path d="M499.288 359.433L490.891 363.877L486.068 354.778L476.089 360.057L480.911 369.168L472.514 373.611L477.982 383.947L486.38 379.503L491.202 388.603L501.182 383.323L496.359 374.213L504.757 369.769L499.288 359.433Z" stroke="#92E3A9" stroke-width="1.11375" stroke-linecap="round" stroke-linejoin="round"/>
<path d="M140.681 374.48C144.446 374.48 147.498 371.428 147.498 367.664C147.498 363.899 144.446 360.848 140.681 360.848C136.917 360.848 133.865 363.899 133.865 367.664C133.865 371.428 136.917 374.48 140.681 374.48Z" stroke="#92E3A9" stroke-width="1.11375" stroke-linecap="round" stroke-linejoin="round"/>
<path d="M246.857 276.537C246.857 277.528 246.055 278.341 245.052 278.341C244.05 278.341 243.248 277.539 243.248 276.537C243.248 275.534 244.05 274.732 245.052 274.732C246.055 274.732 246.857 275.534 246.857 276.537Z" stroke="#92E3A9" stroke-width="1.11375" stroke-linecap="round" stroke-linejoin="round"/>
<path d="M164.306 245.586C164.306 249.105 161.455 251.956 157.935 251.956C154.416 251.956 151.564 249.105 151.564 245.586C151.564 242.066 154.416 239.215 157.935 239.215C161.455 239.215 164.306 242.066 164.306 245.586Z" stroke="#92E3A9" stroke-width="1.11375" stroke-linecap="round" stroke-linejoin="round"/>
<path d="M445.004 331.879C445.004 333.873 443.389 335.488 441.396 335.488C439.402 335.488 437.787 333.873 437.787 331.879C437.787 329.885 439.402 328.271 441.396 328.271C443.389 328.271 445.004 329.885 445.004 331.879Z" stroke="#92E3A9" stroke-width="1.11375" stroke-linecap="round" stroke-linejoin="round"/>
<path d="M408.516 221.896C412.976 221.896 416.591 218.281 416.591 213.821C416.591 209.362 412.976 205.747 408.516 205.747C404.057 205.747 400.441 209.362 400.441 213.821C400.441 218.281 404.057 221.896 408.516 221.896Z" stroke="#92E3A9" stroke-width="1.11375" stroke-linecap="round" stroke-linejoin="round"/>
</g>
<path d="M358.798 286.393C359.232 287.039 372.007 289.579 378.623 299.213C385.239 308.847 388.268 316.933 388.268 316.933C388.268 316.933 399.35 323.526 405.03 328.961C410.71 334.396 417.482 341.613 422.705 345.4C427.929 349.187 438.665 356.371 441.383 364.779C441.383 364.779 425.267 408.906 420.712 418.663C416.156 428.419 404.907 449.124 404.907 449.124L384.904 534.293H268.573L264.608 505.079C264.608 505.079 229.012 498.085 214.077 485.054C214.077 485.054 212.674 452.766 218.899 423.931C225.136 395.096 246.298 335.22 260.643 316.921C260.643 316.921 283.553 305.962 303.768 302.398C303.768 302.398 316.888 292.029 325.486 290.926C334.084 289.813 358.787 286.382 358.787 286.382L358.798 286.393Z" fill="#FF9978"/>
<path d="M266.202 518.266C276.526 520.237 285.525 521.941 296.028 521.819C306.531 521.696 317.279 519.335 325.888 513.31C327.659 512.074 329.374 510.659 331.457 510.08C336.023 508.799 340.545 511.817 345.078 513.221C350.825 515.003 357.129 514.156 362.764 512.018C368.389 509.88 373.467 506.538 378.49 503.23C377.744 513.477 377.499 523.757 377.778 534.026L384.939 534.315L403.283 453.602C403.283 453.602 371.908 490.055 356.605 500.925L327.28 493.374C327.28 493.374 324.507 495.668 318.704 496.826C318.704 496.826 316.042 507.062 301.073 507.084C286.105 507.106 264.643 505.102 264.643 505.102L266.213 518.266H266.202Z" fill="#92E3A9"/>
<path d="M266.202 518.266C276.526 520.237 285.525 521.941 296.028 521.819C306.531 521.696 317.279 519.335 325.888 513.31C327.659 512.074 329.374 510.659 331.457 510.08C336.023 508.799 340.545 511.817 345.078 513.221C350.825 515.003 357.129 514.156 362.764 512.018C368.389 509.88 373.467 506.538 378.49 503.23C377.744 513.477 377.499 523.757 377.778 534.026L384.939 534.315L403.283 453.602C403.283 453.602 371.908 490.055 356.605 500.925L327.28 493.374C327.28 493.374 324.507 495.668 318.704 496.826C318.704 496.826 316.042 507.062 301.073 507.084C286.105 507.106 264.643 505.102 264.643 505.102L266.213 518.266H266.202Z" fill="#D97657"/>
<path d="M236.045 367.786C236.045 367.786 222.39 433.91 223.114 456.619C223.114 456.619 241.614 451.429 254.533 456.619C254.533 456.619 232.548 454.169 223.081 464.248C213.614 474.328 242.75 500.813 301.055 495.433C301.055 495.433 312.682 499.087 318.585 496.948C318.585 496.948 317.004 507.473 300.955 507.206C284.972 506.571 238.206 506.181 213.993 485.198C213.993 485.198 210.952 424.398 236.045 367.786Z" fill="#92E3A9"/>
<path d="M236.045 367.786C236.045 367.786 222.39 433.91 223.114 456.619C223.114 456.619 241.614 451.429 254.533 456.619C254.533 456.619 232.548 454.169 223.081 464.248C213.614 474.328 242.75 500.813 301.055 495.433C301.055 495.433 312.682 499.087 318.585 496.948C318.585 496.948 317.004 507.473 300.955 507.206C284.972 506.571 238.206 506.181 213.993 485.198C213.993 485.198 210.952 424.398 236.045 367.786Z" fill="#D97657"/>
<path d="M263.984 380.338C263.984 380.338 268.016 409.619 274.498 415.745C280.98 421.87 311.285 419.877 323.247 426.47C323.247 426.47 334.518 406.935 354.922 394.695L327.257 438.265L303.344 432.607L274.153 428.096L271.703 433.732L267.314 433.698C267.314 433.698 266.824 402.547 263.984 380.338Z" fill="#92E3A9"/>
<path d="M263.984 380.338C263.984 380.338 268.016 409.619 274.498 415.745C280.98 421.87 311.285 419.877 323.247 426.47C323.247 426.47 334.518 406.935 354.922 394.695L327.257 438.265L303.344 432.607L274.153 428.096L271.703 433.732L267.314 433.698C267.314 433.698 266.824 402.547 263.984 380.338Z" fill="#D97657"/>
<path d="M374.391 218.176C374.391 218.176 376.919 188.695 364.211 185.855C351.503 183.015 344.364 171.398 344.364 171.398L299.28 183.984L292.285 211.093L296.785 224.825C296.785 224.825 297.72 237.544 297.932 243.848C298.144 250.141 297.954 255.03 302.71 262.626C307.466 270.222 311.898 277.851 322.201 284.456V301.819C322.201 301.819 315.83 320.408 319.349 331.812C319.349 331.812 321.454 334.029 327.279 330.687C333.104 327.346 357.963 310.729 366.639 293.377L369.335 249.261C369.335 249.261 376.496 250.364 379.581 243.848C384.103 237.466 383.925 230.015 382.176 223.956C380.428 217.898 372.843 221.829 372.843 221.829L374.402 218.187L374.391 218.176Z" fill="#FCC7A3"/>
<path d="M305.852 180.23C305.852 180.23 295.071 194.409 295.683 209.188C296.296 223.979 298.457 234.448 297.844 245.853C297.231 257.258 309.249 276.359 321.567 284.055C330.789 289.813 342.327 288.833 351.293 282.885C361.295 276.247 366.841 264.185 368.846 252.669C369.046 251.533 369.202 250.386 369.325 249.239" stroke="#263238" stroke-width="1.11375" stroke-linecap="round" stroke-linejoin="round"/>
<path d="M321.567 284.066C321.567 284.066 323.327 300.026 321.567 305.506C319.641 311.509 317.313 325.486 319.34 331.801C321.367 338.116 359.29 311.576 366.63 293.366C366.63 293.366 367.632 257.982 370.16 249.127" stroke="#263238" stroke-width="1.11375" stroke-linecap="round" stroke-linejoin="round"/>
<path d="M320.564 261.011C320.564 261.011 337.817 265.889 344.867 248.08" stroke="#263238" stroke-width="1.11375" stroke-linecap="round" stroke-linejoin="round"/>
<path d="M321.921 287.908C321.921 287.908 325.597 299.302 333.527 299.981C341.457 300.661 361.281 284.767 368.008 266.045V256.667C368.008 256.667 362.417 281.126 346.123 285.647C329.829 290.169 322.189 284.433 322.189 284.433L321.91 287.897L321.921 287.908Z" fill="#E8A476"/>
<path d="M343.841 250.374C336.179 249.84 332.715 257.369 332.715 257.369C326.188 256.578 322.613 261.401 322.613 261.401C322.613 261.401 328.048 266.992 336.747 263.962C345.445 260.933 343.853 250.374 343.853 250.374H343.841Z" stroke="#263238" stroke-width="1.11375" stroke-linecap="round" stroke-linejoin="round"/>
<path d="M324.63 216.784C324.664 220.293 324.63 223.89 324.174 227.376C323.75 230.528 322.302 233.535 321.088 236.509C319.986 239.204 318.115 243.347 319.663 246.187C321.423 249.406 327.27 246.187 327.27 246.187" stroke="#263238" stroke-width="1.11375" stroke-linecap="round" stroke-linejoin="round"/>
<path d="M330.867 245.508C332.839 245.786 335.634 245.53 336.191 242.088" stroke="#263238" stroke-width="1.11375" stroke-linecap="round" stroke-linejoin="round"/>
<path d="M337.25 212.529C337.25 212.529 343.855 206.036 351.395 212.529" stroke="#263238" stroke-width="2.22751" stroke-linecap="round" stroke-linejoin="round"/>
<path d="M314.749 215.314C314.749 215.314 309.537 208.587 302.688 215.314" stroke="#263238" stroke-width="2.22751" stroke-linecap="round" stroke-linejoin="round"/>
<path d="M365.215 232.198C365.215 232.198 371.185 217.898 378.947 220.972C384.305 223.099 384.628 232.332 381.788 238.725C378.947 245.118 377.522 251.745 368.055 248.08" stroke="#263238" stroke-width="1.11375" stroke-linecap="round" stroke-linejoin="round"/>
<path d="M366.273 230.004C366.273 230.004 360.549 227.977 359.491 218.688C358.433 209.4 364.135 200.1 362.03 193.35C359.914 186.59 343.241 189.976 339.432 178.359C339.432 178.359 326.913 187.693 302.7 185.688C302.7 185.688 297.577 194.397 296.686 199.721C295.828 204.878 295.227 215.882 296.775 224.825C296.82 225.115 296.875 225.393 296.931 225.672C298.68 234.749 290.015 213.331 290.226 204.187C290.438 195.043 284.947 183.427 292.131 174.773C299.315 166.119 325.677 161.052 330.867 157.031C336.057 153.021 346.192 163.791 357.809 167.801C369.425 171.81 379.137 176.544 377.656 193.083C376.175 209.622 377.745 211.839 377.801 220.548C377.801 220.548 372.41 218.521 366.273 230.015V230.004Z" fill="#263238"/>
<path d="M344.322 224.613C344.322 226.863 343.464 228.69 342.406 228.69C341.348 228.69 340.49 226.863 340.49 224.613C340.49 222.364 341.348 220.537 342.406 220.537C343.464 220.537 344.322 222.364 344.322 224.613Z" fill="#263238"/>
<path d="M314.751 224.613C314.751 226.863 313.894 228.69 312.836 228.69C311.778 228.69 310.92 226.863 310.92 224.613C310.92 222.364 311.778 220.537 312.836 220.537C313.894 220.537 314.751 222.364 314.751 224.613Z" fill="#263238"/>
<path d="M337.25 230.004C337.25 230.004 341.226 234.225 346.271 234.838" stroke="#263238" stroke-width="1.11375" stroke-linecap="round" stroke-linejoin="round"/>
<path d="M310.152 234.838C310.152 234.838 317.414 234.314 319.074 230.004" stroke="#263238" stroke-width="1.11375" stroke-linecap="round" stroke-linejoin="round"/>
<path d="M327.047 334.507C332.46 331.066 339.621 332.347 345.557 334.797C348.81 336.134 351.906 337.838 355.147 339.208C356.762 339.887 358.399 340.522 360.092 340.956C364.157 342.014 362.698 336.969 362.464 334.708C362.13 331.478 361.896 328.226 361.506 324.996C361.428 324.328 361.362 323.593 361.729 323.014C362.074 322.479 362.709 322.234 363.322 322.045C370.461 319.773 378.157 320.797 385.641 320.953C386.31 320.964 387.034 320.953 387.602 320.586C388.704 319.85 388.593 318.213 388.292 316.921C385.719 305.917 376.642 294.969 366.774 289.467" stroke="#263238" stroke-width="1.11375" stroke-linecap="round" stroke-linejoin="round"/>
<path d="M322.191 291.294C317.279 293.343 312.234 295.471 308.001 298.611C306.476 299.736 305.05 300.995 303.78 302.42C302.856 303.467 301.976 304.704 301.965 306.107C301.965 307.432 302.711 308.535 303.736 309.415C304.471 310.038 305.34 310.551 306.186 310.952C308.235 311.921 310.585 312.867 311.51 314.928C311.699 315.362 311.822 315.852 311.732 316.32C311.655 316.754 311.398 317.133 311.109 317.478C309.416 319.539 306.431 321.131 306.62 323.793C306.765 325.854 308.826 327.179 310.697 328.048C312.568 328.928 314.706 329.908 315.341 331.879" stroke="#263238" stroke-width="1.11375" stroke-linecap="round" stroke-linejoin="round"/>
<path d="M293.121 186.857C293.834 182.38 298.501 179.528 302.978 178.793C307.455 178.069 312.044 178.827 316.566 178.415C324.095 177.724 331.234 173.57 335.566 167.377" stroke="white" stroke-width="1.11375" stroke-linecap="round" stroke-linejoin="round"/>
<path d="M298.189 174.328C306.275 169.55 317.636 174.517 325.521 169.427C327.838 167.935 329.575 165.719 331.257 163.536" stroke="white" stroke-width="1.11375" stroke-linecap="round" stroke-linejoin="round"/>
<path d="M401.322 357.139C372.331 362.908 361.561 384.226 361.561 384.226L327.258 438.254" stroke="#263238" stroke-width="1.11375" stroke-linecap="round" stroke-linejoin="round"/>
<path d="M376.842 351.281C379.27 349.064 381.954 347.171 384.917 345.779" stroke="#263238" stroke-width="1.11375" stroke-linecap="round" stroke-linejoin="round"/>
<path d="M356.594 392.066C356.594 392.066 360.258 372.553 370.75 358.186" stroke="#263238" stroke-width="1.11375" stroke-linecap="round" stroke-linejoin="round"/>
<path d="M267.315 433.687C267.315 433.687 265.811 373.912 260.654 364.791" stroke="#263238" stroke-width="1.11375" stroke-linecap="round" stroke-linejoin="round"/>
<path d="M327.27 438.253C327.27 438.253 353.911 443.421 362.564 455.561" stroke="#263238" stroke-width="1.11375" stroke-linecap="round" stroke-linejoin="round"/>
<path d="M403.918 450.728L384.918 534.315H268.597L264.621 505.101" stroke="#263238" stroke-width="1.11375" stroke-linecap="round" stroke-linejoin="round"/>
<path d="M318.682 496.826C312.256 509.991 303.78 507.084 303.78 507.084C238.236 509.567 214.09 485.076 214.09 485.076C214.09 485.076 210.771 450.628 223.634 404.14C236.498 357.64 260.656 316.944 260.656 316.944C271.359 309.827 295.238 304.269 301.976 302.799C303.123 302.554 303.78 302.42 303.78 302.42" stroke="#263238" stroke-width="1.11375" stroke-linecap="round" stroke-linejoin="round"/>
<path d="M303.791 507.084C303.791 507.084 300.316 506.516 301.207 483.55" stroke="#263238" stroke-width="1.11375" stroke-linecap="round" stroke-linejoin="round"/>
<path d="M262.439 460.573C262.439 460.573 246.067 454.804 225.785 468.849" stroke="#263238" stroke-width="1.11375" stroke-linecap="round" stroke-linejoin="round"/>
<path d="M229.459 455.562C229.459 455.562 250.91 449.18 260.655 459.404" stroke="#263238" stroke-width="1.11375" stroke-linecap="round" stroke-linejoin="round"/>
<path d="M258.329 458.814L261.113 460.206L271.716 433.721C271.716 433.721 260.735 431.928 243.338 453.591C243.338 453.591 250.767 453.179 258.34 458.814H258.329Z" fill="#FCC7A3" stroke="#263238" stroke-width="1.11375" stroke-miterlimit="10"/>
<path d="M301.208 483.55L301.152 495.312C301.152 495.312 316.166 499.767 327.259 493.374L301.197 483.55H301.208Z" fill="#FCC7A3" stroke="#263238" stroke-width="1.11375" stroke-miterlimit="10"/>
<path opacity="0.2" d="M331.668 221.885C331.668 221.885 345.69 214.601 358.565 221.885C358.565 221.885 358.776 232.633 353.92 237.055C352.194 238.625 344.275 238.892 341.29 238.625C329.128 237.522 331.668 221.885 331.668 221.885Z" fill="white"/>
<path opacity="0.2" d="M322.869 221.885C322.869 221.885 308.847 214.601 295.972 221.885C295.972 221.885 295.76 232.633 300.616 237.055C302.343 238.625 310.262 238.892 313.246 238.625C325.409 237.522 322.869 221.885 322.869 221.885Z" fill="white"/>
<path d="M331.668 221.885C331.668 221.885 345.69 214.601 358.565 221.885C358.565 221.885 358.776 232.633 353.92 237.055C352.194 238.625 344.275 238.892 341.29 238.625C329.128 237.522 331.668 221.885 331.668 221.885Z" stroke="#263238" stroke-width="1.11375" stroke-miterlimit="10"/>
<path d="M322.869 221.885C322.869 221.885 308.847 214.601 295.972 221.885C295.972 221.885 295.76 232.633 300.616 237.055C302.343 238.625 310.262 238.892 313.246 238.625C325.409 237.522 322.869 221.885 322.869 221.885Z" stroke="#263238" stroke-width="1.11375" stroke-miterlimit="10"/>
<path d="M322.869 221.885C322.869 221.885 326.01 219.58 331.668 221.885" stroke="#263238" stroke-width="1.11375" stroke-miterlimit="10"/>
<path d="M358.564 221.885L364.423 224.614" stroke="#263238" stroke-width="1.11375" stroke-miterlimit="10"/>
<path d="M134.334 563.963L175.554 525.026H502.697L527.478 563.963H134.334Z" fill="#C2D6CF" stroke="#00454A" stroke-width="1.11375" stroke-linecap="round" stroke-linejoin="round"/>
<path d="M527.478 563.963H134.334V574.443H527.478V563.963Z" fill="#263238" stroke="#00454A" stroke-width="1.11375" stroke-linecap="round" stroke-linejoin="round"/>
<path d="M175.553 554.34V546.266H240.139V554.34H227.688H175.553Z" fill="white" stroke="#263238" stroke-width="1.11375" stroke-miterlimit="10"/>
<path d="M175.553 546.265L213.71 520.671L264.62 521.863L240.139 546.265H175.553Z" fill="white" stroke="#263238" stroke-width="1.11375" stroke-linecap="round" stroke-linejoin="round"/>
<path d="M240.139 554.34L264.619 529.815V521.863L240.139 546.265V554.34Z" fill="white" stroke="#263238" stroke-width="1.11375" stroke-linecap="round" stroke-linejoin="round"/>
<path d="M238.403 544.239C238.403 544.239 233.246 545.263 233.246 549.73C233.246 554.196 237.668 555.499 237.668 555.499" stroke="#263238" stroke-width="2.22751" stroke-linecap="round" stroke-linejoin="round"/>
<path d="M233.245 544.239C233.245 544.239 228.088 545.263 228.088 549.73C228.088 554.196 232.509 555.499 232.509 555.499" stroke="#263238" stroke-width="2.22751" stroke-linecap="round" stroke-linejoin="round"/>
<path d="M228.088 544.239C228.088 544.239 222.932 545.263 222.932 549.73C222.932 554.196 227.353 555.499 227.353 555.499" stroke="#263238" stroke-width="2.22751" stroke-linecap="round" stroke-linejoin="round"/>
<path d="M222.932 544.239C222.932 544.239 217.775 545.263 217.775 549.73C217.775 554.196 222.197 555.499 222.197 555.499" stroke="#263238" stroke-width="2.22751" stroke-linecap="round" stroke-linejoin="round"/>
<path d="M217.774 544.239C217.774 544.239 212.617 545.263 212.617 549.73C212.617 554.196 217.039 555.499 217.039 555.499" stroke="#263238" stroke-width="2.22751" stroke-linecap="round" stroke-linejoin="round"/>
<path d="M212.62 544.239C212.62 544.239 207.463 545.263 207.463 549.73C207.463 554.196 211.884 555.499 211.884 555.499" stroke="#263238" stroke-width="2.22751" stroke-linecap="round" stroke-linejoin="round"/>
<path d="M207.461 544.239C207.461 544.239 202.305 545.263 202.305 549.73C202.305 554.196 206.726 555.499 206.726 555.499" stroke="#263238" stroke-width="2.22751" stroke-linecap="round" stroke-linejoin="round"/>
<path d="M202.305 544.239C202.305 544.239 197.148 545.263 197.148 549.73C197.148 554.196 201.57 555.499 201.57 555.499" stroke="#263238" stroke-width="2.22751" stroke-linecap="round" stroke-linejoin="round"/>
<path d="M196.502 544.239C196.502 544.239 191.346 545.263 191.346 549.73C191.346 554.196 195.767 555.499 195.767 555.499" stroke="#263238" stroke-width="2.22751" stroke-linecap="round" stroke-linejoin="round"/>
<path d="M190.7 544.239C190.7 544.239 185.543 545.263 185.543 549.73C185.543 554.196 189.965 555.499 189.965 555.499" stroke="#263238" stroke-width="2.22751" stroke-linecap="round" stroke-linejoin="round"/>
<path d="M184.262 544.239C184.262 544.239 179.105 545.263 179.105 549.73C179.105 554.196 183.527 555.499 183.527 555.499" stroke="#263238" stroke-width="2.22751" stroke-linecap="round" stroke-linejoin="round"/>
<path d="M216.952 526.942C213.421 528.88 210.559 531.998 208.922 535.685C213.577 534.248 217.308 530.807 220.861 527.465C219.569 530.651 218.289 533.836 216.997 537.021C220.538 536.765 223.902 534.694 225.728 531.653C224.459 532.11 223.857 533.836 224.57 534.983C227.8 534.515 229.86 531.386 231.487 528.568C231.776 530.138 231.899 531.742 231.832 533.346C234.516 533.736 237.3 533.379 239.795 532.332" stroke="#263238" stroke-width="0.835315" stroke-linecap="round" stroke-linejoin="round"/>
<path d="M500.528 486.022H388.25V547.669H500.528V486.022Z" fill="#C2D6CF" stroke="#263238" stroke-width="1.11375" stroke-linecap="round" stroke-linejoin="round"/>
<path d="M387.805 547.658L369.762 530.484V468.849L387.805 486.023V547.658Z" fill="#C2D6CF" stroke="#263238" stroke-width="1.11375" stroke-linecap="round" stroke-linejoin="round"/>
<path d="M500.529 486.023L482.475 468.849H370.197L388.251 486.023H500.529Z" fill="#C2D6CF" stroke="#263238" stroke-width="1.11375" stroke-linecap="round" stroke-linejoin="round"/>
<path d="M459.231 509.144H449.307V498.764H435.33V509.144H424.504V523.121H435.33V533.502H449.307V523.121H459.231V509.144Z" fill="#FFF65A" stroke="#263238" stroke-width="1.11375" stroke-miterlimit="10"/>
<path d="M443.404 486.023L425.35 468.849" stroke="#263238" stroke-width="1.11375" stroke-linecap="round" stroke-linejoin="round"/>
<path d="M206.08 224.018C219.176 210.922 219.176 189.689 206.08 176.592C192.984 163.496 171.751 163.496 158.654 176.592C145.558 189.689 145.558 210.922 158.654 224.018C171.751 237.114 192.984 237.114 206.08 224.018Z" fill="#FFF087" stroke="#263238" stroke-width="1.11375" stroke-linecap="round" stroke-linejoin="round"/>
<path d="M210.221 195.165C210.221 199.643 207.392 203.83 202.926 205.334L187.957 210.379L169.725 216.538C164.145 218.421 158.031 215.402 156.149 209.811C155.77 208.686 155.592 207.539 155.592 206.414C155.592 201.948 158.421 197.749 162.876 196.235L179.437 190.655L196.077 185.041C201.668 183.148 207.771 186.177 209.653 191.757C210.032 192.882 210.221 194.041 210.221 195.165Z" fill="#FFF087"/>
<path d="M210.222 195.165C210.222 199.643 207.393 203.83 202.927 205.334L187.958 210.379C187.312 199.988 182.077 193.35 179.438 190.655L196.077 185.041C201.668 183.148 207.771 186.177 209.654 191.757C210.032 192.882 210.222 194.041 210.222 195.165Z" fill="#87ABA1"/>
<path d="M210.221 195.165C210.221 199.643 207.392 203.83 202.926 205.334L187.957 210.379L169.725 216.538C164.145 218.421 158.031 215.402 156.149 209.811C155.77 208.686 155.592 207.539 155.592 206.414C155.592 201.948 158.421 197.749 162.876 196.235L179.437 190.655L196.077 185.041C201.668 183.148 207.771 186.177 209.653 191.757C210.032 192.882 210.221 194.041 210.221 195.165Z" stroke="#263238" stroke-width="1.11375" stroke-linecap="round" stroke-linejoin="round"/>
<path d="M187.958 210.38C187.958 210.38 188.114 199.688 179.438 190.655" stroke="#263238" stroke-width="1.11375" stroke-linecap="round" stroke-linejoin="round"/>
<path d="M206.68 191.111C207.303 192.147 207.704 193.428 207.704 195.032" stroke="#FFF087" stroke-width="1.11375" stroke-linecap="round" stroke-linejoin="round"/>
<path d="M183.703 192.292L197.035 187.893C199.474 187.091 202.18 187.347 204.319 188.706" stroke="#FFF087" stroke-width="1.11375" stroke-linecap="round" stroke-linejoin="round"/>
<path d="M410.242 154.807C427.298 147.588 435.272 127.909 428.054 110.853C420.835 93.7968 401.156 85.8221 384.1 93.0409C367.044 100.26 359.069 119.939 366.288 136.995C373.507 154.051 393.185 162.026 410.242 154.807Z" fill="#FFF087" stroke="#263238" stroke-width="1.11375" stroke-linecap="round" stroke-linejoin="round"/>
<path d="M408.718 137.963L379.471 128.173C374.436 126.491 371.697 120.989 373.378 115.955C375.06 110.921 380.562 108.17 385.596 109.863L414.843 119.653C419.878 121.335 422.617 126.837 420.936 131.871C419.254 136.905 413.752 139.645 408.718 137.963Z" fill="#87ABA1"/>
<path d="M387.301 127.382L392.19 115.688" stroke="#263238" stroke-width="1.11375" stroke-linecap="round" stroke-linejoin="round"/>
<path d="M403.416 132.75L408.294 121.078" stroke="#263238" stroke-width="1.11375" stroke-linecap="round" stroke-linejoin="round"/>
<path d="M391.345 128.084C391.892 128.084 392.336 127.64 392.336 127.093C392.336 126.545 391.892 126.102 391.345 126.102C390.797 126.102 390.354 126.545 390.354 127.093C390.354 127.64 390.797 128.084 391.345 128.084Z" fill="#263238"/>
<path d="M401.088 130.011C401.088 130.557 400.642 131.002 400.097 131.002C399.551 131.002 399.105 130.557 399.105 130.011C399.105 129.466 399.551 129.02 400.097 129.02C400.642 129.02 401.088 129.466 401.088 130.011Z" fill="#263238"/>
<path d="M395.175 119.263C395.722 119.263 396.166 118.819 396.166 118.272C396.166 117.725 395.722 117.281 395.175 117.281C394.627 117.281 394.184 117.725 394.184 118.272C394.184 118.819 394.627 119.263 395.175 119.263Z" fill="#263238"/>
<path d="M404.787 121.101C404.787 121.647 404.342 122.092 403.796 122.092C403.25 122.092 402.805 121.647 402.805 121.101C402.805 120.555 403.25 120.11 403.796 120.11C404.342 120.11 404.787 120.555 404.787 121.101Z" fill="#263238"/>
<path d="M408.718 137.963L379.471 128.173C374.436 126.491 371.697 120.989 373.378 115.955C375.06 110.921 380.562 108.17 385.596 109.863L414.843 119.653C419.878 121.335 422.617 126.837 420.936 131.871C419.254 136.905 413.752 139.645 408.718 137.963Z" stroke="#263238" stroke-width="1.11375" stroke-linecap="round" stroke-linejoin="round"/>
<path d="M270.555 155.627C289.076 155.627 304.09 140.613 304.09 122.092C304.09 103.571 289.076 88.5571 270.555 88.5571C252.034 88.5571 237.02 103.571 237.02 122.092C237.02 140.613 252.034 155.627 270.555 155.627Z" fill="#FFF087" stroke="#263238" stroke-width="1.11375" stroke-linecap="round" stroke-linejoin="round"/>
<path d="M289.766 122.961V136.705C289.766 140.191 287.55 143.02 284.81 143.02H256.298C253.558 143.02 251.342 140.191 251.342 136.705V122.961C251.342 119.475 253.558 116.646 256.298 116.646H260.987V108.672H279.954V116.646H284.81C287.55 116.646 289.766 119.475 289.766 122.961Z" fill="#FFF087" stroke="#263238" stroke-width="1.11375" stroke-linecap="round" stroke-linejoin="round"/>
<path d="M289.767 124.542H251.354V133.063H289.767V124.542Z" fill="#87ABA1" stroke="#263238" stroke-width="1.11375" stroke-miterlimit="10"/>
<path d="M263.603 99.3384H277.681C280.988 99.3384 283.673 102.023 283.673 105.33V111.556H257.6V105.33C257.6 102.023 260.284 99.3384 263.592 99.3384H263.603Z" fill="#87ABA1" stroke="#263238" stroke-width="1.11375" stroke-miterlimit="10"/>
<path d="M262.166 99.7061V111.556" stroke="#263238" stroke-width="1.11375" stroke-linecap="round" stroke-linejoin="round"/>
<path d="M268.326 99.3384V111.556" stroke="#263238" stroke-width="1.11375" stroke-linecap="round" stroke-linejoin="round"/>
<path d="M274.484 99.3384V111.556" stroke="#263238" stroke-width="1.11375" stroke-linecap="round" stroke-linejoin="round"/>
<path d="M280.631 100.029V111.556" stroke="#263238" stroke-width="1.11375" stroke-linecap="round" stroke-linejoin="round"/>
<path d="M184.649 305.433C187.645 287.156 175.258 269.911 156.981 266.915C138.704 263.918 121.459 276.306 118.462 294.583C115.466 312.86 127.854 330.105 146.13 333.101C164.407 336.098 181.653 323.71 184.649 305.433Z" fill="#FFF087" stroke="#263238" stroke-width="1.11375" stroke-linecap="round" stroke-linejoin="round"/>
<path d="M168.567 308.661C172.22 300.937 167.197 290.9 157.35 286.243C147.502 281.586 136.557 284.072 132.905 291.796C129.252 299.519 134.274 309.556 144.122 314.213C153.97 318.871 164.914 316.385 168.567 308.661Z" fill="#87ABA1" stroke="#263238" stroke-width="1.11375" stroke-linecap="round" stroke-linejoin="round"/>
<path d="M169.785 306.023C173.211 298.777 168.005 289.128 158.158 284.471C148.31 279.814 137.549 281.912 134.122 289.158C130.696 296.403 135.901 306.052 145.749 310.709C155.597 315.367 166.358 313.268 169.785 306.023Z" fill="#87ABA1" stroke="#263238" stroke-width="1.11375" stroke-linecap="round" stroke-linejoin="round"/>
<path d="M157.631 287.673L145.469 304.803" stroke="#263238" stroke-width="1.11375" stroke-linecap="round" stroke-linejoin="round"/>
<path d="M150.314 284.912C153.054 285.268 155.115 285.992 155.115 285.992" stroke="#FFF087" stroke-width="1.11375" stroke-linecap="round" stroke-linejoin="round"/>
<path d="M139.498 301.028C139.498 301.028 133.272 294.223 139.353 287.674C140.757 286.159 142.594 285.357 144.521 284.99" stroke="#FFF087" stroke-width="1.11375" stroke-linecap="round" stroke-linejoin="round"/>
<path d="M537.883 305.452C540.88 287.175 528.492 269.93 510.215 266.934C491.938 263.937 474.693 276.325 471.697 294.602C468.7 312.879 481.088 330.124 499.365 333.12C517.642 336.117 534.887 323.729 537.883 305.452Z" fill="#FFF087" stroke="#263238" stroke-width="1.11375" stroke-linecap="round" stroke-linejoin="round"/>
<path d="M524.034 303.389C523.778 303.756 523.521 304.135 523.254 304.502C518.231 311.463 510.491 317.957 504.755 319.237V319.148C499.175 317.901 491.69 311.72 486.667 304.97C486.389 304.603 486.122 304.224 485.865 303.856C481.032 296.929 478.994 289.656 484.373 286.649C495.31 280.546 504.755 293.632 504.755 293.632C504.755 293.632 514.222 280.646 525.136 286.738C530.371 289.656 528.578 296.628 524.034 303.389Z" fill="#87ABA1" stroke="#263238" stroke-width="1.11375" stroke-miterlimit="10"/>
<path d="M524.034 303.389C523.777 303.757 523.521 304.135 523.254 304.503H520.492L517.329 308.679L515.179 296.294L511.86 304.714H503.964L499.899 311.497L496.78 297.854L492.759 304.971H486.667C486.389 304.603 486.121 304.224 485.865 303.857H492.113L497.226 294.802L500.366 308.557L503.34 303.601H511.103L515.602 292.196L517.986 305.962L519.935 303.389H524.034Z" fill="#FFF087"/>
<path d="M472.512 234.214C491.033 234.214 506.047 219.2 506.047 200.679C506.047 182.158 491.033 167.144 472.512 167.144C453.991 167.144 438.977 182.158 438.977 200.679C438.977 219.2 453.991 234.214 472.512 234.214Z" fill="#FFF087" stroke="#263238" stroke-width="1.11375" stroke-linecap="round" stroke-linejoin="round"/>
<path d="M469.984 185.175C470.307 185.899 468.302 187.514 465.484 188.761C462.678 190.02 460.138 190.443 459.815 189.719C459.492 188.995 461.497 187.38 464.315 186.133C467.133 184.885 469.661 184.451 469.984 185.175Z" fill="#FFF087" stroke="#263238" stroke-width="1.11375" stroke-linecap="round" stroke-linejoin="round"/>
<path d="M485.087 216.271L475.041 221.138L466.053 202.605L459.838 189.786L469.862 184.93L475.932 197.426L485.087 216.271Z" fill="#FFF087" stroke="#263238" stroke-width="1.11375" stroke-linecap="round" stroke-linejoin="round"/>
<path d="M461.688 193.617L466.042 191.602Z" fill="#87ABA1"/>
<path d="M461.688 193.617L466.042 191.602" stroke="#263238" stroke-width="1.11375" stroke-linecap="round" stroke-linejoin="round"/>
<path d="M463.59 197.649L467.945 195.633Z" fill="#87ABA1"/>
<path d="M463.59 197.649L467.945 195.633" stroke="#263238" stroke-width="1.11375" stroke-linecap="round" stroke-linejoin="round"/>
<path d="M478.893 219.267L484.06 226.072L481.476 218.02L478.893 219.267Z" fill="#FFF087" stroke="#263238" stroke-width="1.11375" stroke-linecap="round" stroke-linejoin="round"/>
<path d="M485.087 216.271C482.737 218.632 479.741 220.225 476.478 220.86L475.052 221.138L466.064 202.605L475.943 197.426L485.099 216.271H485.087Z" fill="#87ABA1" stroke="#263238" stroke-width="1.11375" stroke-miterlimit="10"/>
<path d="M467.945 206.124L472.033 204.231" stroke="#263238" stroke-width="1.11375" stroke-linecap="round" stroke-linejoin="round"/>
<path d="M470.197 210.435L474.218 208.586Z" fill="#87ABA1"/>
<path d="M470.197 210.435L474.218 208.586" stroke="#263238" stroke-width="1.11375" stroke-linecap="round" stroke-linejoin="round"/>
<path d="M463.311 188.104L460.137 180.965L462.62 179.55L466.051 186.779L463.311 188.104Z" fill="#FFF087" stroke="#263238" stroke-width="1.11375" stroke-linecap="round" stroke-linejoin="round"/>
<path d="M468.746 178.681L468 177L454.635 182.98L455.381 184.662C455.693 185.364 458.945 184.595 462.632 182.936C466.318 181.287 469.058 179.372 468.746 178.67V178.681Z" fill="#FFF087" stroke="#263238" stroke-width="1.11375" stroke-linecap="round" stroke-linejoin="round"/>
<path d="M468.001 177C467.689 176.298 464.437 177.067 460.75 178.726C457.063 180.375 454.324 182.29 454.636 182.992C454.947 183.694 458.2 182.925 461.886 181.266C465.573 179.617 468.312 177.702 468.001 177Z" fill="#FFF087" stroke="#263238" stroke-width="1.11375" stroke-linecap="round" stroke-linejoin="round"/>
</g>
<defs>
<clipPath id="clip0_306_3660">
<rect width="489.539" height="487" fill="white" transform="translate(78 88)"/>
</clipPath>
</defs>
</svg>
