<svg width="24" height="24" viewBox="0 0 24 24" fill="none" xmlns="http://www.w3.org/2000/svg">
<path d="M15.3409 9.54113L17.066 9.74402C13.6619 12.6546 9.62568 14.7671 4.4553 16.3491C4.2109 16.4228 4.07249 16.6811 4.15086 16.9257C4.2109 17.124 4.39526 17.2531 4.59371 17.2531C4.63985 17.2531 4.68599 17.2485 4.7275 17.2346C9.96756 15.634 14.0724 13.4939 17.5502 10.551L17.3656 12.1054C17.338 12.3591 17.5177 12.5898 17.7716 12.6173C17.7901 12.6173 17.8085 12.622 17.827 12.622C18.0577 12.622 18.2559 12.4513 18.2836 12.216L18.6065 9.46697V9.45307C18.6112 9.42083 18.6019 9.39303 18.5973 9.36079C18.5926 9.33319 18.5926 9.30076 18.5834 9.27315C18.5741 9.25018 18.5604 9.22701 18.5511 9.20848C18.5372 9.18087 18.5281 9.15307 18.5096 9.1301L18.4957 9.1162C18.4911 9.11157 18.4911 9.10694 18.4911 9.10694C18.4772 9.09304 18.4635 9.0884 18.4496 9.0747C18.422 9.04709 18.3895 9.02393 18.3573 9.00559C18.3388 8.99632 18.3158 8.99169 18.2926 8.98705C18.265 8.97779 18.2372 8.96408 18.205 8.95945L15.456 8.63647C15.2023 8.60424 14.9716 8.7886 14.944 9.04245C14.9071 9.28261 15.0915 9.5133 15.3407 9.54091L15.3409 9.54113Z" fill="#FFFFFF"/>
<path d="M20.9118 1.0001H6.15133C6.14207 1.0001 6.1328 1.00473 6.12373 1.00473C6.08222 1.00937 6.04535 1.014 6.00384 1.02771C5.99458 1.03234 5.98531 1.03234 5.97624 1.03234C5.9716 1.03234 5.96697 1.03697 5.96234 1.04161C5.91157 1.06458 5.86543 1.09238 5.82392 1.13388L2.13378 4.82402C2.09228 4.86553 2.06467 4.91166 2.04151 4.9578C2.03687 4.96244 2.03224 4.96707 2.03224 4.9717C2.02761 4.98097 2.02761 4.99467 2.02761 5.00394C2.01371 5.04081 2.00907 5.07769 2.00463 5.11919C2.00463 5.1329 2 5.14216 2 5.15143V22.6794C2 22.9331 2.20753 23.1406 2.46119 23.1406H20.9114C21.165 23.1406 21.3726 22.9331 21.3726 22.6794L21.3728 1.46119C21.3728 1.20753 21.1652 1 20.9116 1L20.9118 1.0001ZM5.69024 2.57306V4.69024H3.57306L5.69024 2.57306ZM20.4502 22.2177H2.92269V5.61243H6.15143C6.4051 5.61243 6.61263 5.4049 6.61263 5.15123V1.92249H20.4504L20.4502 22.2177Z" fill="#FFFFFF"/>
<path d="M10.7639 8.94455C11.2713 8.94455 11.6865 9.35961 11.6865 9.86714C11.6865 10.3745 11.2714 10.7897 10.7639 10.7897C10.2566 10.7897 9.84133 10.3747 9.84133 9.86714C9.84133 9.61347 9.6338 9.40594 9.38014 9.40594C9.12647 9.40594 8.91895 9.61347 8.91895 9.86714C8.91895 10.725 9.50927 11.4401 10.3027 11.6476V12.1733C10.3027 12.427 10.5102 12.6345 10.7639 12.6345C11.0176 12.6345 11.2251 12.427 11.2251 12.1733V11.6474C12.0186 11.4399 12.6089 10.7248 12.6089 9.86694C12.6089 8.84764 11.7832 8.02197 10.7639 8.02197C10.2566 8.02197 9.84133 7.60692 9.84133 7.09939C9.84133 6.59203 10.2564 6.1768 10.7639 6.1768C11.2713 6.1768 11.6865 6.59186 11.6865 7.09939C11.6865 7.35305 11.894 7.56058 12.1477 7.56058C12.4014 7.56058 12.6089 7.35305 12.6089 7.09939C12.6089 6.24149 12.0186 5.52643 11.2251 5.31891L11.2253 4.79322C11.2253 4.53956 11.0178 4.33203 10.7641 4.33203C10.5104 4.33203 10.3029 4.53956 10.3029 4.79322V5.31911C9.50947 5.52664 8.91914 6.24169 8.91914 7.09958C8.91895 8.11888 9.74461 8.94455 10.7639 8.94455H10.7639Z" fill="#FFFFFF"/>
<path d="M7.53539 20.3711H4.76783C4.51417 20.3711 4.30664 20.5786 4.30664 20.8323C4.30664 21.086 4.51417 21.2935 4.76783 21.2935H7.53539C7.78905 21.2935 7.99658 21.086 7.99658 20.8323C7.99658 20.5786 7.78905 20.3711 7.53539 20.3711Z" fill="#FFFFFF"/>
<path d="M13.0686 20.3711H10.301C10.0474 20.3711 9.83984 20.5786 9.83984 20.8323C9.83984 21.086 10.0474 21.2935 10.301 21.2935H13.0686C13.3223 21.2935 13.5298 21.086 13.5298 20.8323C13.5298 20.5786 13.3223 20.3711 13.0686 20.3711Z" fill="#FFFFFF"/>
<path d="M13.0686 18.5273H10.301C10.0474 18.5273 9.83984 18.7349 9.83984 18.9885C9.83984 19.2422 10.0474 19.4497 10.301 19.4497H13.0686C13.3223 19.4497 13.5298 19.2422 13.5298 18.9885C13.5298 18.7349 13.3223 18.5273 13.0686 18.5273Z" fill="#FFFFFF"/>
<path d="M18.6067 20.3711H15.8391C15.5855 20.3711 15.3779 20.5786 15.3779 20.8323C15.3779 21.086 15.5855 21.2935 15.8391 21.2935H18.6067C18.8603 21.2935 19.0679 21.086 19.0679 20.8323C19.0679 20.5786 18.8603 20.3711 18.6067 20.3711Z" fill="#FFFFFF"/>
<path d="M18.6067 18.5273H15.8391C15.5855 18.5273 15.3779 18.7349 15.3779 18.9885C15.3779 19.2422 15.5855 19.4497 15.8391 19.4497H18.6067C18.8603 19.4497 19.0679 19.2422 19.0679 18.9885C19.0679 18.7349 18.8603 18.5273 18.6067 18.5273Z" fill="#FFFFFF"/>
<path d="M18.6067 16.6797H15.8391C15.5855 16.6797 15.3779 16.8872 15.3779 17.1409C15.3779 17.3945 15.5855 17.6021 15.8391 17.6021H18.6067C18.8603 17.6021 19.0679 17.3945 19.0679 17.1409C19.0679 16.8874 18.8603 16.6797 18.6067 16.6797Z" fill="#FFFFFF"/>
</svg>
